  0
SECTION
  2
ENTITIES
  0
LINE
  8
0
 10
-30.0000
 20
20.0000
 30
0.0
 11
30.0000
 21
20.0000
 31
0.0
  0
LINE
  8
0
 10
-30.0000
 20
-20.0000
 30
0.0
 11
30.0000
 21
-20.0000
 31
0.0
  0
LINE
  8
0
 10
-35.0000
 20
-15.0000
 30
0.0
 11
-35.0000
 21
15.0000
 31
0.0
  0
LINE
  8
0
 10
35.0000
 20
-15.0000
 30
0.0
 11
35.0000
 21
15.0000
 31
0.0
  0
ARC
  8
0
 10
30.0000
 20
15.0000
 30
0.0
 40
5.0000
 50
0.0000
 51
90.0000
  0
ARC
  8
0
 10
-30.0000
 20
15.0000
 30
0.0
 40
5.0000
 50
90.0000
 51
180.0000
  0
ARC
  8
0
 10
-30.0000
 20
-15.0000
 30
0.0
 40
5.0000
 50
180.0000
 51
270.0000
  0
ARC
  8
0
 10
30.0000
 20
-15.0000
 30
0.0
 40
5.0000
 50
270.0000
 51
360.0000
  0
CIRCLE
  8
0
 10
-20.0000
 20
10.0000
 30
0.0
 40
2.7500
  0
CIRCLE
  8
0
 10
20.0000
 20
10.0000
 30
0.0
 40
2.7500
  0
CIRCLE
  8
0
 10
0.0000
 20
-15.0000
 30
0.0
 40
2.5000
  0
ENDSEC
  0
EOF
